<svg xmlns="http://www.w3.org/2000/svg" viewBox="0 0 1440 320"><path fill="#0099ff" fill-opacity="1" d="M0,288L12,250.7C24,213,48,139,72,138.7C96,139,120,213,144,245.3C168,277,192,267,216,240C240,213,264,171,288,165.3C312,160,336,192,360,192C384,192,408,160,432,133.3C456,107,480,85,504,74.7C528,64,552,64,576,101.3C600,139,624,213,648,234.7C672,256,696,224,720,202.7C744,181,768,171,792,181.3C816,192,840,224,864,229.3C888,235,912,213,936,218.7C960,224,984,256,1008,240C1032,224,1056,160,1080,138.7C1104,117,1128,139,1152,170.7C1176,203,1200,245,1224,224C1248,203,1272,117,1296,74.7C1320,32,1344,32,1368,32C1392,32,1416,32,1428,32L1440,32L1440,320L1428,320C1416,320,1392,320,1368,320C1344,320,1320,320,1296,320C1272,320,1248,320,1224,320C1200,320,1176,320,1152,320C1128,320,1104,320,1080,320C1056,320,1032,320,1008,320C984,320,960,320,936,320C912,320,888,320,864,320C840,320,816,320,792,320C768,320,744,320,720,320C696,320,672,320,648,320C624,320,600,320,576,320C552,320,528,320,504,320C480,320,456,320,432,320C408,320,384,320,360,320C336,320,312,320,288,320C264,320,240,320,216,320C192,320,168,320,144,320C120,320,96,320,72,320C48,320,24,320,12,320L0,320Z"></path></svg>